<svg xmlns="http://www.w3.org/2000/svg" viewBox="0 0 32 32">
  <!-- 13 alternating stripes -->
  <rect width="32" height="32" fill="#B22234"/>
  <rect y="2.46" width="32" height="2.46" fill="#fff"/>
  <rect y="7.38" width="32" height="2.46" fill="#fff"/>
  <rect y="12.31" width="32" height="2.46" fill="#fff"/>
  <rect y="17.23" width="32" height="2.46" fill="#fff"/>
  <rect y="22.15" width="32" height="2.46" fill="#fff"/>
  <rect y="27.07" width="32" height="2.46" fill="#fff"/>
  <!-- Blue canton -->
  <rect width="13" height="17.23" fill="#3C3B6E"/>
  <!-- Star grid — offset rows of dots -->
  <g fill="#fff">
    <circle cx="2.5" cy="2.5" r="1.1"/><circle cx="6.5" cy="2.5" r="1.1"/><circle cx="10.5" cy="2.5" r="1.1"/>
    <circle cx="4.5" cy="5.5" r="1.1"/><circle cx="8.5" cy="5.5" r="1.1"/>
    <circle cx="2.5" cy="8.5" r="1.1"/><circle cx="6.5" cy="8.5" r="1.1"/><circle cx="10.5" cy="8.5" r="1.1"/>
    <circle cx="4.5" cy="11.5" r="1.1"/><circle cx="8.5" cy="11.5" r="1.1"/>
    <circle cx="2.5" cy="14.5" r="1.1"/><circle cx="6.5" cy="14.5" r="1.1"/><circle cx="10.5" cy="14.5" r="1.1"/>
  </g>
</svg>
